<?xml version="1.0" encoding="UTF-8"?>
<svg id="Capa_1" data-name="Capa 1" xmlns="http://www.w3.org/2000/svg" viewBox="0 0 113.39 113.39">
  <path d="m.22,62.08c1.16-.61,2.29-1.2,3.44-1.81.07.11.14.2.2.3.52.83,1.02,1.66,1.75,2.34,1.08,1.01,2.92,1.01,3.96-.04.59-.59.68-1.31.36-2.04-.18-.42-.46-.82-.78-1.14-.54-.54-1.15-1.02-1.75-1.49-.95-.74-1.93-1.44-2.87-2.19-.66-.52-1.24-1.14-1.74-1.82-1.77-2.43-.93-6.08,1.72-7.59,2.26-1.29,5.72-1.07,7.82,1.11,1.07,1.11,1.98,2.34,2.84,3.61,1.43,2.12,2.73,4.33,4.03,6.53.57.97,1.1,1.98,1.82,2.85,1.06,1.28,2.29,2.37,3.97,2.76,1.49.35,3,.33,4.47-.08,1.7-.48,3.01-1.55,4.02-2.98.52-.74.73-1.61.88-2.49.24-1.33.17-2.64-.3-3.91-.29-.79-.72-1.49-1.33-2.07-.27-.26-.55-.51-.84-.76-2.59-2.27-6.68-2.18-9.24-.22-.92.7-1.58,1.55-2.11,2.54-.21.39-.41.79-.66,1.26-.8-1.35-1.56-2.62-2.34-3.91,1.4-1.73,3.05-3.12,5.05-4.08.97-.46,2-.76,3.07-.87,1.56-.17,3.1-.02,4.61.37,2.46.64,4.54,1.9,6.12,3.92,1.23,1.58,1.88,3.4,2.17,5.37.55,3.66-1.48,8.91-6.58,10.96-2.99,1.2-6.03,1.44-9.13.43-1.35-.44-2.53-1.18-3.56-2.16-.95-.91-1.81-1.9-2.48-3.03-1-1.7-2.02-3.38-2.99-5.1-1.06-1.88-2.27-3.65-3.61-5.34-.28-.35-.62-.66-.96-.95-.51-.44-1.12-.62-1.8-.61-1.01.01-1.74.75-1.37,1.99.18.59.61,1,1.08,1.36.74.56,1.51,1.09,2.27,1.64.56.4,1.16.77,1.67,1.23.68.61,1.32,1.27,1.92,1.96,1.41,1.63,1.84,4.63.09,6.86-.76.97-1.65,1.81-2.79,2.31-1.47.65-2.99.6-4.5.14-.56-.17-1.1-.4-1.63-.66-.97-.46-1.79-1.1-2.39-2-.38-.56-.78-1.11-1.15-1.67-.16-.25-.28-.52-.44-.83m35.43-3.29c-.04.13-.07.21-.09.3-.22.74-.54,1.44-1.01,2.06-2.17,2.82-5.02,4.16-8.58,3.77-1.92-.21-3.61-1.01-4.98-2.42-.87-.9-1.63-1.89-2.3-2.95-.59-.94-1.21-1.87-1.83-2.8-.06-.09-.17-.19-.26-.21-.39-.07-.79-.11-1.27-.17.12.22.19.38.29.54.94,1.54,1.89,3.08,2.82,4.63.6,1,1.4,1.81,2.27,2.55.69.6,1.47,1.05,2.32,1.36,2.55.95,5.11,1.02,7.69.13,2.73-.95,4.73-2.7,5.89-5.37.18-.41.29-.84.46-1.32-.51-.03-.96-.07-1.41-.1m-33.53,3.91c.84,1.24,1.79,2.3,3.09,2.98,2,1.05,4.6.74,6.28-.77,1.31-1.19,1.81-2.67,1.4-4.41-.21-.9-.73-1.64-1.36-2.31-1.04-1.08-2.15-2.06-3.4-2.89-.24-.16-.49-.3-.76-.38-.68-.2-1.36-.37-2.05-.54-.15-.04-.31-.03-.46-.05-.01.03-.02.06-.04.09.21.18.41.38.63.55.53.42,1.07.83,1.62,1.23.99.72,1.91,1.52,2.8,2.35.57.54,1.08,1.13,1.36,1.89.5,1.37.24,2.59-.86,3.62-1.03.96-3.46,1.52-5.08.26-.68-.53-1.28-1.14-1.79-1.84-.09-.13-.2-.25-.32-.4-.37.22-.7.41-1.06.62"/>
  <path d="m54.39,45.82h4.22v21.76c-.56,0-1.11.02-1.65-.01-.14,0-.29-.17-.4-.29-1.26-1.32-2.52-2.65-3.77-3.98-2.65-2.79-5.29-5.59-7.94-8.38-.11-.12-.23-.24-.35-.36-.03.01-.06.03-.09.04v12.95h-4.24c-.1-.34-.14-20.9-.04-21.75.6,0,1.21-.02,1.82.01.13,0,.27.16.37.27,1.08,1.15,2.17,2.29,3.24,3.45,2.85,3.1,5.69,6.2,8.54,9.3.07.08.15.14.3.28v-13.29Zm-3.06,13.69s-.02.07-.03.1c1.95,2.11,3.89,4.22,5.84,6.33.03-.01.06-.03.1-.05v-6.41h-1.36v3.2c-.19-.2-.3-.31-.41-.43-.76-.84-1.51-1.69-2.28-2.53-.11-.12-.27-.25-.41-.26-.48-.02-.96.02-1.45.04m-9.7-.38v6.92c.46.03.89.05,1.31,0v-6.8c-.44-.04-.85-.08-1.31-.12"/>
  <path d="m81.89,45.84h4.15v.55c0,4.11-.02,8.21,0,12.32,0,.94.08,1.87.17,2.8.08.81.54,1.42,1.24,1.78,1.48.77,2.97.74,4.4-.12.81-.48,1.14-1.3,1.31-2.19.18-.9.21-1.8.21-2.71,0-3.95,0-7.91,0-11.86v-.53c.37-.1,3.4-.12,3.98-.04.01.11.04.22.04.34,0,4.68.01,9.35,0,14.03,0,1.36-.38,2.64-1.03,3.84-.47.86-1.11,1.56-1.94,2.06-2.46,1.51-5.07,1.85-7.84,1.03-2.62-.78-4.34-3.6-4.58-5.61-.06-.5-.09-1.01-.09-1.52,0-4.55,0-9.11,0-13.66v-.52m1.43,11.51c-.01.16-.03.28-.02.4.02.68.03,1.36.09,2.03.09,1.11.27,2.2.71,3.23.62,1.45,1.67,2.42,3.2,2.83,1.51.41,3.05.4,4.57.09,1.77-.36,2.95-1.44,3.6-3.12.31-.81.47-1.65.56-2.51.17-1.55.1-3.1.07-4.66,0-.12-.03-.23-.06-.39-.48.11-.92.22-1.4.32v.53c0,1.28,0,2.56,0,3.83,0,.38-.02.77-.09,1.15-.32,1.71-1.24,2.96-2.9,3.59-1.11.42-2.26.45-3.41.17-1.15-.29-2.14-.89-2.75-1.95-.47-.82-.78-1.71-.83-2.66-.04-.86-.04-1.72-.06-2.58,0-.16-.02-.32-.03-.5-.44.07-.81.13-1.24.2"/>
  <path d="m99.24,50.2c.14-.23.24-.44.37-.61.86-1.14,1.82-2.17,3.05-2.91.61-.37,1.28-.57,1.98-.72,1.65-.36,3.17-.07,4.58.84,1.26.81,2.1,1.93,2.42,3.4.2.95,0,1.89-.33,2.79-.4,1.08-1.09,1.98-1.97,2.71-.71.6-1.48,1.14-2.22,1.7-.71.53-1.45,1.03-2.13,1.6-.39.32-.71.73-1.01,1.14-.32.43-.46.94-.49,1.48-.03.48.12.9.45,1.24.77.8,1.7,1.11,2.79.81.7-.19,1.31-.53,1.75-1.12.38-.51.78-1,1.11-1.54.52-.86,1.26-1.09,2.21-.87.93.22,1.4,1.01,1.38,1.73-.01.33,0,.66-.18.96-.96,1.77-2.21,3.27-4.07,4.14-1.74.81-3.52.82-5.31.16-.9-.33-1.75-.77-2.46-1.4-1.13-1.01-1.78-2.29-1.89-3.82-.13-1.85.68-3.34,1.89-4.62,1.17-1.24,2.55-2.24,3.97-3.19.6-.4,1.17-.85,1.7-1.33.46-.41.72-.96.74-1.6.02-.63-.29-1.07-.9-1.25-.71-.21-1.42-.16-2.04.26-.43.3-.81.66-1.17,1.04-.38.4-.71.85-1.09,1.3-1.04-.77-2.05-1.51-3.13-2.31m10.92,2.09c-.51.15-.97.27-1.43.41-.07.02-.15.1-.19.18-.24.53-.64.91-1.09,1.24-.64.48-1.31.92-1.95,1.38-.85.62-1.72,1.22-2.54,1.87-.69.54-1.27,1.2-1.67,1.99-.65,1.27-.75,2.6-.2,3.92.57,1.36,1.59,2.31,2.98,2.78,2.16.73,4.07.1,5.75-1.28.73-.6,1.29-1.39,1.78-2.21.08-.14.15-.29.21-.45.13-.36.05-.62-.23-.78-.25-.15-.48-.1-.74.22-.17.21-.32.43-.47.66-.62.99-1.45,1.76-2.46,2.35-.58.34-1.2.56-1.88.57-1.17.03-2.14-.45-2.95-1.26-1.19-1.19-1.3-2.78-.3-4.13.81-1.1,1.74-2.06,2.91-2.79,1.07-.67,2.11-1.4,3.01-2.29.43-.42.8-.9,1.16-1.38.19-.26.32-.58.29-1"/>
  <path d="m71.14,67.59v-17.79c-1.53-.01-3.03,0-4.59,0-.05-1.33-.01-2.64-.02-3.99h13.49v3.97c-.5.03-.99.01-1.49.01-.5,0-1.01,0-1.51,0h-1.56v.59c0,5.5,0,11.01,0,16.51q0,.7-.7.7c-1.02,0-2.04,0-3.07,0h-.56m2.87-1.6v-7.35c-.47.03-.9.06-1.34.1v7.26h1.34Z"/>
  <path d="m60.47,45.8h4.2v21.71c-.37.1-3.74.11-4.2,0v-21.72Zm1.51,20.18h1.34v-6.56h-1.34v6.56Z"/>
</svg>