<svg xmlns="http://www.w3.org/2000/svg" viewBox="0 0 38.43 21.78"><defs><style>.cls-1{fill:#fff;}</style></defs><title>SO Sonitus claro</title><g id="Capa_2" data-name="Capa 2"><g id="Capa_1-2" data-name="Capa 1"><path class="cls-1" d="M0,16.28l3.44-1.81c.08.11.15.2.21.3a11,11,0,0,0,1.74,2.34,2.94,2.94,0,0,0,4,0,1.72,1.72,0,0,0,.36-2,3.89,3.89,0,0,0-.79-1.14A17.86,17.86,0,0,0,7.18,12.4c-.94-.74-1.92-1.44-2.87-2.19A9.38,9.38,0,0,1,2.57,8.39,5.32,5.32,0,0,1,4.29.8a6.66,6.66,0,0,1,7.83,1.1A26.69,26.69,0,0,1,15,5.51c1.43,2.13,2.73,4.33,4,6.53a21.54,21.54,0,0,0,1.82,2.85,7.39,7.39,0,0,0,4,2.76,8.91,8.91,0,0,0,4.47-.08,7.27,7.27,0,0,0,4-3,6.16,6.16,0,0,0,.89-2.49,7.47,7.47,0,0,0-.3-3.92,5.62,5.62,0,0,0-1.33-2.07c-.27-.26-.56-.51-.84-.76A7.39,7.39,0,0,0,20.32,7.68c-.21.39-.41.79-.66,1.27L17.32,5A14.47,14.47,0,0,1,22.37,1,9.22,9.22,0,0,1,25.44.09a12.78,12.78,0,0,1,4.61.36,11.06,11.06,0,0,1,6.12,3.92,11.21,11.21,0,0,1,2.17,5.38,10.59,10.59,0,0,1-6.58,11,13,13,0,0,1-9.13.44A9.33,9.33,0,0,1,19.07,19a14.18,14.18,0,0,1-2.47-3c-1-1.69-2-3.38-3-5.09A40.43,40.43,0,0,0,10,5.5a7.18,7.18,0,0,0-1-1,2.57,2.57,0,0,0-1.79-.61,1.41,1.41,0,0,0-1.37,2A2.76,2.76,0,0,0,7,7.29c.74.57,1.51,1.1,2.27,1.64a20.52,20.52,0,0,1,1.67,1.23,21,21,0,0,1,1.92,2A5.52,5.52,0,0,1,12.91,19a7.55,7.55,0,0,1-2.79,2.32,6.35,6.35,0,0,1-4.5.14A12.09,12.09,0,0,1,4,20.78a5.74,5.74,0,0,1-2.39-2c-.38-.56-.78-1.11-1.16-1.67-.16-.25-.28-.53-.44-.83M35.43,13c0,.13-.07.21-.09.3a6.23,6.23,0,0,1-1,2.05,9,9,0,0,1-8.58,3.78,8,8,0,0,1-5-2.42,18.26,18.26,0,0,1-2.3-2.95c-.58-.95-1.21-1.87-1.82-2.8a.5.5,0,0,0-.27-.21c-.39-.07-.79-.11-1.27-.17.12.22.19.38.29.53.93,1.55,1.89,3.08,2.81,4.63a10.63,10.63,0,0,0,2.27,2.55,7.5,7.5,0,0,0,2.33,1.37,11.06,11.06,0,0,0,7.69.12,9.52,9.52,0,0,0,5.88-5.36c.18-.41.3-.85.46-1.32L35.43,13M1.89,16.91a8.61,8.61,0,0,0,3.09,3,5.63,5.63,0,0,0,6.29-.77,4.27,4.27,0,0,0,1.39-4.41,4.93,4.93,0,0,0-1.36-2.3A20.39,20.39,0,0,0,7.9,9.51a2.85,2.85,0,0,0-.76-.38c-.68-.21-1.37-.37-2-.54a2.4,2.4,0,0,0-.46-.05.36.36,0,0,0,0,.09c.21.18.41.37.63.55.54.41,1.07.83,1.62,1.23a27.21,27.21,0,0,1,2.8,2.35A5,5,0,0,1,11,14.65a3.1,3.1,0,0,1-.87,3.61,4.23,4.23,0,0,1-5.07.27,9.18,9.18,0,0,1-1.79-1.84c-.09-.13-.2-.25-.31-.4l-1.07.62"/></g></g></svg>